<svg xmlns="http://www.w3.org/2000/svg" viewBox="0 0 900 520">
  <defs>
    <linearGradient id="g" x1="0" y1="0" x2="1" y2="1">
      <stop stop-color="#ff6b35"/>
      <stop offset=".5" stop-color="#ffd166"/>
      <stop offset="1" stop-color="#14d9ff"/>
    </linearGradient>
  </defs>
  <rect width="900" height="520" rx="36" fill="#090a12"/>
  <circle cx="746" cy="105" r="154" fill="#ff6b35" opacity=".2"/>
  <circle cx="190" cy="420" r="170" fill="#14d9ff" opacity=".16"/>
  <rect x="86" y="78" width="728" height="364" rx="28" fill="#ffffff" opacity=".09" stroke="#ffffff" stroke-opacity=".18"/>
  <rect x="128" y="116" width="250" height="292" rx="22" fill="url(#g)" opacity=".9"/>
  <circle cx="253" cy="238" r="74" fill="#090a12" opacity=".72"/>
  <path d="M216 238c24-52 84-52 74 20-26 9-49 8-74-20z" fill="#ffd166"/>
  <rect x="422" y="138" width="300" height="28" rx="14" fill="#fff" opacity=".8"/>
  <rect x="422" y="190" width="220" height="18" rx="9" fill="#fff" opacity=".35"/>
  <rect x="422" y="228" width="260" height="18" rx="9" fill="#fff" opacity=".22"/>
  <rect x="422" y="310" width="126" height="48" rx="24" fill="#14d9ff"/>
  <rect x="570" y="310" width="126" height="48" rx="24" fill="#8a4dff"/>
  <text x="128" y="468" fill="#ffffff" font-family="Arial, sans-serif" font-size="34" font-weight="700">FoodieHub</text>
</svg>
