<svg xmlns="http://www.w3.org/2000/svg" viewBox="0 0 900 520">
  <rect width="900" height="520" rx="36" fill="#070b10"/>
  <circle cx="170" cy="140" r="160" fill="#ffd166" opacity=".17"/>
  <circle cx="710" cy="355" r="190" fill="#14d9ff" opacity=".14"/>
  <rect x="96" y="88" width="708" height="344" rx="28" fill="#fff" opacity=".09" stroke="#fff" stroke-opacity=".17"/>
  <path d="M216 322c42-116 142-127 196-4-71 40-135 41-196 4z" fill="#7cffc4"/>
  <path d="M244 286c33-69 101-72 137-2-45 28-91 29-137 2z" fill="#ffd166"/>
  <rect x="472" y="144" width="246" height="30" rx="15" fill="#fff" opacity=".8"/>
  <rect x="472" y="208" width="296" height="18" rx="9" fill="#fff" opacity=".32"/>
  <rect x="472" y="250" width="250" height="18" rx="9" fill="#fff" opacity=".22"/>
  <path d="M472 346h74l44-55 44 55h84" fill="none" stroke="#14d9ff" stroke-width="14" stroke-linecap="round" stroke-linejoin="round"/>
  <text x="96" y="468" fill="#ffffff" font-family="Arial, sans-serif" font-size="34" font-weight="700">Waste Food Management</text>
</svg>
