<svg xmlns="http://www.w3.org/2000/svg" viewBox="0 0 900 520">
  <rect width="900" height="520" rx="36" fill="#090a12"/>
  <circle cx="686" cy="156" r="168" fill="#7cffc4" opacity=".15"/>
  <circle cx="225" cy="390" r="165" fill="#ff4fd8" opacity=".13"/>
  <rect x="92" y="88" width="716" height="344" rx="28" fill="#fff" opacity=".09" stroke="#fff" stroke-opacity=".17"/>
  <circle cx="240" cy="220" r="56" fill="#14d9ff"/>
  <circle cx="326" cy="238" r="42" fill="#8a4dff"/>
  <circle cx="196" cy="306" r="39" fill="#7cffc4"/>
  <path d="M240 278c-72 20-109 61-114 119h238c-8-59-47-99-124-119z" fill="#fff" opacity=".18"/>
  <rect x="446" y="142" width="250" height="28" rx="14" fill="#fff" opacity=".78"/>
  <rect x="446" y="204" width="310" height="18" rx="9" fill="#fff" opacity=".34"/>
  <rect x="446" y="248" width="270" height="18" rx="9" fill="#fff" opacity=".24"/>
  <rect x="446" y="326" width="116" height="46" rx="23" fill="#ff4fd8"/>
  <text x="92" y="468" fill="#ffffff" font-family="Arial, sans-serif" font-size="34" font-weight="700">NGO Management</text>
</svg>
